<svg width="466" height="280" xmlns="http://www.w3.org/2000/svg">
  <defs>
    <linearGradient x1="93.32%" y1="97.149%" x2="-14.156%" y2="-17.931%" id="a">
      <stop stop-color="#41A8B9" offset="0%"/>
      <stop stop-color="#41BEB9" offset="51.829%"/>
      <stop stop-color="#41D2B9" offset="100%"/>
    </linearGradient>
  </defs>
  <path d="M81.26 110.84l-2.14 5.913-6.257.633C37.315 120.983 10 151.022 10 187.026v12.975C10 238.66 41.34 270 80.009 270H385.99C424.657 270 456 238.662 456 200v-12.974c0-30.064-19.127-56.48-47.08-66.162l-6.292-2.18-.416-6.645C398.652 55.067 347.362 10 284.842 10c-42.378 0-80.737 20.832-101.646 53.892l-4.005 6.333-7.203-2.066c-6.96-1.996-14.25-3.024-21.703-3.024-31.655 0-59.26 18.727-69.025 45.706z" stroke="url(#a)" stroke-width="20" fill="none" fill-rule="evenodd"/>
</svg>
